<svg xmlns="http://www.w3.org/2000/svg" version="1.1" xmlns:xlink="http://www.w3.org/1999/xlink" xmlns:svgjs="http://svgjs.dev/svgjs" viewBox="0 0 2400 800" opacity="1"><g fill="hsl(32, 100%, 51%)" transform="matrix(1,0,0,1,2.0377197265625,283.7364273071289)"><path d="M-10,10C117.08333333333334,12.291666666666666,347.9166666666667,31,600,21C852.0833333333333,11,950,-39.041666666666664,1200,-38C1450,-36.958333333333336,1550,21.833333333333332,1800,26C2050,30.166666666666668,2222.9166666666665,-95.91666666666667,2400,-18C2577.0833333333335,59.91666666666667,3254.1666666666665,208.75,2650,400C2045.8333333333335,591.25,156.25,795.8333333333334,-500,900" transform="matrix(1,0,0,1,0,44)" opacity="0.05"></path><path d="M-10,10C117.08333333333334,12.291666666666666,347.9166666666667,31,600,21C852.0833333333333,11,950,-39.041666666666664,1200,-38C1450,-36.958333333333336,1550,21.833333333333332,1800,26C2050,30.166666666666668,2222.9166666666665,-95.91666666666667,2400,-18C2577.0833333333335,59.91666666666667,3254.1666666666665,208.75,2650,400C2045.8333333333335,591.25,156.25,795.8333333333334,-500,900" transform="matrix(1,0,0,1,0,88)" opacity="0.53"></path><path d="M-10,10C117.08333333333334,12.291666666666666,347.9166666666667,31,600,21C852.0833333333333,11,950,-39.041666666666664,1200,-38C1450,-36.958333333333336,1550,21.833333333333332,1800,26C2050,30.166666666666668,2222.9166666666665,-95.91666666666667,2400,-18C2577.0833333333335,59.91666666666667,3254.1666666666665,208.75,2650,400C2045.8333333333335,591.25,156.25,795.8333333333334,-500,900" transform="matrix(1,0,0,1,0,132)" opacity="1.00"></path></g></svg>